<svg width="20" height="35" viewBox="0 0 20 35" fill="none" xmlns="http://www.w3.org/2000/svg">
<path d="M17.2583 0H2.74167C2.01476 0.000723877 1.31783 0.285296 0.803828 0.791268C0.289825 1.29724 0.000735367 1.98328 0 2.69883V32.3012C0.000735367 33.0167 0.289825 33.7028 0.803828 34.2087C1.31783 34.7147 2.01476 34.9993 2.74167 35H17.2583C17.9852 34.9993 18.6822 34.7147 19.1962 34.2087C19.7102 33.7028 19.9993 33.0167 20 32.3012V2.69883C19.9993 1.98328 19.7102 1.29724 19.1962 0.791268C18.6822 0.285296 17.9852 0.000723877 17.2583 0V0ZM5.55556 1.09375H14.4444V1.91406C14.4468 1.9865 14.434 2.05863 14.4069 2.12601C14.3798 2.19339 14.3389 2.25459 14.2869 2.30583C14.2348 2.35707 14.1726 2.39727 14.1042 2.42395C14.0357 2.45063 13.9625 2.46321 13.8889 2.46094H6.11111C6.03753 2.46321 5.96425 2.45063 5.8958 2.42395C5.82735 2.39727 5.76518 2.35707 5.71313 2.30583C5.66107 2.25459 5.62023 2.19339 5.59313 2.12601C5.56603 2.05863 5.55324 1.9865 5.55556 1.91406V1.09375ZM18.8889 32.3012C18.8882 32.7266 18.7161 33.1345 18.4105 33.4353C18.1049 33.7362 17.6906 33.9055 17.2583 33.9062H2.74167C2.30944 33.9055 1.89513 33.7362 1.5895 33.4353C1.28387 33.1345 1.11185 32.7266 1.11111 32.3012V2.69883C1.11185 2.27336 1.28387 1.86552 1.5895 1.56467C1.89513 1.26381 2.30944 1.09447 2.74167 1.09375H4.44444V1.91406C4.44222 2.13012 4.4838 2.34445 4.56677 2.54449C4.64974 2.74453 4.77242 2.92626 4.92763 3.07905C5.08284 3.23183 5.26746 3.3526 5.47068 3.43427C5.67389 3.51594 5.89162 3.55688 6.11111 3.55469H13.8889C14.1084 3.55688 14.3261 3.51594 14.5293 3.43427C14.7325 3.3526 14.9172 3.23183 15.0724 3.07905C15.2276 2.92626 15.3503 2.74453 15.4332 2.54449C15.5162 2.34445 15.5578 2.13012 15.5556 1.91406V1.09375H17.2583C17.6906 1.09447 18.1049 1.26381 18.4105 1.56467C18.7161 1.86552 18.8882 2.27336 18.8889 2.69883V32.3012Z" fill="#CBCBCB"/>
</svg>
