<svg width="34" height="34" viewBox="0 0 34 34" fill="none" xmlns="http://www.w3.org/2000/svg">
<circle cx="17" cy="17" r="17" fill="black"/>
<path opacity="0.2" d="M26.533 19.7743C26.3854 18.7118 25.8542 17.8854 24.9393 17.3542C24.5261 17.1181 24.0243 16.941 23.5521 16.7344C23.6111 16.7049 23.6407 16.6459 23.6702 16.6459C26.0018 15.4358 25.7952 11.8351 24.1129 10.5955C23.4341 10.0938 22.6667 9.76912 21.8403 9.59204C21.25 9.47399 20.6893 9.38544 20.0695 9.26739C20.0695 8.2344 20.099 6.75871 20.099 5.60767H17.8854C17.8854 6.72919 17.8559 8.17537 17.8559 9.17885H16.1146C16.1146 8.14586 16.1146 6.72919 16.1441 5.60767H13.9601C13.9601 6.78822 13.9306 8.20489 13.9306 9.23787C12.4254 9.23787 10.9792 9.20836 9.5035 9.20836C9.5035 10.0052 9.5035 10.7726 9.47399 11.54H10.3594C10.625 11.54 10.9202 11.54 11.1858 11.5695C11.9532 11.6285 12.3368 12.0417 12.3368 12.8091L12.2483 22.224C12.2483 22.9028 11.9532 23.1979 11.2743 23.1979H9.79864C9.65107 24.0834 9.5035 24.9393 9.32642 25.8247C10.8021 25.8542 12.2778 25.8542 13.7535 25.8837C13.7535 27.0052 13.7535 28.4514 13.724 29.632H15.908C15.908 28.4514 15.9375 27.0643 15.9375 25.9427C16.5573 25.9722 17.1181 25.9722 17.6788 26.0018C17.6788 27.1233 17.6493 28.4809 17.6493 29.632H19.8334C19.8334 28.4514 19.8629 27.0643 19.8629 25.9722C19.9514 25.9722 20.0104 25.9427 20.04 25.9427C21.0729 25.7657 22.165 25.6771 23.1684 25.441C24.4966 25.1163 25.5591 24.349 26.0903 23.0209C26.592 21.9584 26.6806 20.8959 26.533 19.7743ZM16.1146 11.7761C17.4722 11.7761 18.8004 11.658 20.0695 12.2188C20.8959 12.5729 21.3091 13.2518 21.25 14.0782C21.191 14.9341 20.6893 15.5538 19.8334 15.849C18.6233 16.2327 17.3837 16.2327 16.0851 16.1736C16.0851 14.6979 16.1146 13.2813 16.1146 11.7761ZM20.8959 22.7257C19.6858 23.257 18.3872 23.257 17.1181 23.2865C16.7639 23.2865 16.4097 23.257 15.9966 23.257C16.0261 21.6337 16.0261 20.04 16.0556 18.4167C17.7084 18.4167 19.3611 18.2986 20.9254 18.9775C21.7222 19.3316 22.1945 19.9514 22.1945 20.8663C22.1945 21.7813 21.7222 22.3716 20.8959 22.7257Z" fill="black"/>
<path d="M25.9427 19.184C25.7951 18.1215 25.2639 17.2951 24.3489 16.7639C23.9357 16.5278 23.434 16.3507 22.9618 16.1441C23.0208 16.1146 23.0503 16.0555 23.0798 16.0555C25.4114 14.8455 25.2048 11.2448 23.5225 10.0052C22.8437 9.50345 22.0764 9.17879 21.25 9.00171C20.6597 8.88365 20.0989 8.79511 19.4791 8.67706C19.4791 7.64407 19.5087 6.16838 19.5087 5.01733H17.2951C17.2951 6.13886 17.2656 7.58504 17.2656 8.58851H15.5243C15.5243 7.55553 15.5243 6.13886 15.5538 5.01733H13.3698C13.3698 6.19789 13.3403 7.61456 13.3403 8.64754C11.835 8.64754 10.3889 8.61803 8.91317 8.61803C8.91317 9.4149 8.91317 10.1823 8.88365 10.9496H9.76907C10.0347 10.9496 10.3298 10.9496 10.5955 10.9791C11.3628 11.0382 11.7465 11.4514 11.7465 12.2187L11.658 21.6337C11.658 22.3125 11.3628 22.6076 10.684 22.6076H9.20831C9.06074 23.493 8.91317 24.3489 8.73608 25.2343C10.2118 25.2639 11.6875 25.2639 13.1632 25.2934C13.1632 26.4149 13.1632 27.8611 13.1337 29.0416H15.3177C15.3177 27.8611 15.3472 26.4739 15.3472 25.3524C15.967 25.3819 16.5278 25.3819 17.0885 25.4114C17.0885 26.533 17.059 27.8906 17.059 29.0416H19.243C19.243 27.8611 19.2725 26.4739 19.2725 25.3819C19.3611 25.3819 19.4201 25.3524 19.4496 25.3524C20.4826 25.1753 21.5746 25.0868 22.5781 24.8507C23.9062 24.526 24.9687 23.7587 25.5 22.4305C26.0017 21.368 26.0903 20.3055 25.9427 19.184ZM15.5243 11.1857C16.8819 11.1857 18.21 11.0677 19.4791 11.6284C20.3055 11.9826 20.7187 12.6614 20.6597 13.4878C20.6007 14.3437 20.0989 14.9635 19.243 15.2587C18.033 15.6423 16.7934 15.6423 15.4948 15.5833C15.4948 14.1076 15.5243 12.6909 15.5243 11.1857ZM20.3055 22.1354C19.0955 22.6666 17.7968 22.6666 16.5278 22.6962C16.1736 22.6962 15.8194 22.6666 15.4062 22.6666C15.4357 21.0434 15.4357 19.4496 15.4653 17.8264C17.118 17.8264 18.7708 17.7083 20.335 18.3871C21.1319 18.7413 21.6041 19.3611 21.6041 20.276C21.6041 21.1909 21.1319 21.7812 20.3055 22.1354Z" fill="white"/>
</svg>
