<svg width="30" height="22" viewBox="0 0 30 22" fill="none" xmlns="http://www.w3.org/2000/svg">
<path d="M26.7857 0H3.21429C2.3618 0 1.54424 0.347678 0.941443 0.966548C0.338647 1.58542 0 2.42479 0 3.3V18.7C0 19.5752 0.338647 20.4146 0.941443 21.0335C1.54424 21.6523 2.3618 22 3.21429 22H26.7857C27.6382 22 28.4558 21.6523 29.0586 21.0335C29.6614 20.4146 30 19.5752 30 18.7V3.3C30 2.42479 29.6614 1.58542 29.0586 0.966548C28.4558 0.347678 27.6382 0 26.7857 0ZM3.21429 2.2H26.7857C27.0699 2.2 27.3424 2.31589 27.5433 2.52218C27.7443 2.72847 27.8571 3.00826 27.8571 3.3V5.5H2.14286V3.3C2.14286 3.00826 2.25574 2.72847 2.45667 2.52218C2.6576 2.31589 2.93012 2.2 3.21429 2.2ZM26.7857 19.8H3.21429C2.93012 19.8 2.6576 19.6841 2.45667 19.4778C2.25574 19.2715 2.14286 18.9917 2.14286 18.7V9.9H27.8571V18.7C27.8571 18.9917 27.7443 19.2715 27.5433 19.4778C27.3424 19.6841 27.0699 19.8 26.7857 19.8Z" fill="black"/>
<path d="M24.6429 16.5H15V18.7H24.6429V16.5Z" fill="black"/>
</svg>
