<svg width="30" height="30" viewBox="0 0 30 30" fill="none" xmlns="http://www.w3.org/2000/svg">
<path d="M15 0C6.72207 0 0 6.72207 0 15C0 23.2779 6.72207 30 15 30C23.2779 30 30 23.2779 30 15C30 6.72207 23.2779 0 15 0ZM15 1.03448C22.7193 1.03448 28.9655 7.28069 28.9655 15C28.9655 22.7193 22.7193 28.9655 15 28.9655C7.28069 28.9655 1.03448 22.7193 1.03448 15C1.03448 7.28069 7.28069 1.03448 15 1.03448ZM15 3.22034C8.50034 3.22034 3.22034 8.50034 3.22034 15C3.22034 21.4997 8.50034 26.7797 15 26.7797C21.4997 26.7797 26.7797 21.4997 26.7797 15C26.7797 8.50034 21.4997 3.22034 15 3.22034V3.22034ZM15 4.25483C16.4113 4.25388 17.809 4.53116 19.1131 5.07082C20.4172 5.61047 21.6021 6.40192 22.6001 7.39989C23.5981 8.39786 24.3895 9.58278 24.9292 10.8869C25.4688 12.191 25.7461 13.5887 25.7452 15C25.7461 16.4113 25.4688 17.809 24.9292 19.1131C24.3895 20.4172 23.5981 21.6021 22.6001 22.6001C21.6021 23.5981 20.4172 24.3895 19.1131 24.9292C17.809 25.4688 16.4113 25.7461 15 25.7452C13.5887 25.7461 12.191 25.4688 10.8869 24.9292C9.58278 24.3895 8.39786 23.5981 7.39989 22.6001C6.40192 21.6021 5.61047 20.4172 5.07082 19.1131C4.53116 17.809 4.25388 16.4113 4.25483 15C4.25388 13.5887 4.53116 12.191 5.07082 10.8869C5.61047 9.58278 6.40192 8.39786 7.39989 7.39989C8.39786 6.40192 9.58278 5.61047 10.8869 5.07082C12.191 4.53116 13.5887 4.25388 15 4.25483V4.25483ZM13.4483 7.24345V9.45207C12.3724 9.61655 11.3814 10.1638 10.8279 11.1228C10.5106 11.6733 10.3435 12.2976 10.3435 12.9331C10.3435 13.5686 10.5106 14.1929 10.8279 14.7434C11.3814 15.7024 12.3714 16.2497 13.4483 16.4141V17.5883H10.3448V20.6917H13.4483V22.7607H16.5517V20.5521C17.6276 20.3866 18.6166 19.8403 19.17 18.8814C19.4874 18.3308 19.6544 17.7065 19.6544 17.071C19.6544 16.4356 19.4874 15.8112 19.17 15.2607C18.6166 14.3017 17.6286 13.7545 16.5517 13.59V12.4159H19.6552V9.31241H16.5517V7.24345H13.4483ZM14.4828 8.27793H15.5172V10.3469H18.6207V11.3814H15.5172V14.4848H16.0345C16.4881 14.4856 16.9336 14.6057 17.3262 14.8329C17.7188 15.0601 18.0449 15.3865 18.2716 15.7794C18.4983 16.1723 18.6178 16.6179 18.6181 17.0716C18.6183 17.5252 18.4994 17.971 18.2731 18.3641C18.046 18.757 17.7197 19.0832 17.3268 19.3102C16.9339 19.5372 16.4882 19.6568 16.0345 19.6572H15.5172V21.7262H14.4828V19.6572H11.3793V18.6228H14.4828V15.5193H13.9655C13.0428 15.5193 12.1862 15.0248 11.7248 14.2262C11.4982 13.8329 11.379 13.387 11.379 12.9331C11.379 12.4792 11.4982 12.0333 11.7248 11.64C11.9524 11.2471 12.2791 10.9209 12.6723 10.694C13.0656 10.467 13.5115 10.3474 13.9655 10.3469H14.4828V8.27793V8.27793ZM13.9655 11.3814C13.4121 11.3814 12.8969 11.6772 12.6207 12.1572C12.4848 12.3932 12.4133 12.6608 12.4133 12.9331C12.4133 13.2054 12.4848 13.473 12.6207 13.709C12.8969 14.189 13.4121 14.4848 13.9655 14.4848H14.4828V11.3814H13.9655ZM15.5172 15.5193V18.6228H16.0345C16.5879 18.6228 17.1021 18.3248 17.3783 17.8469C17.5142 17.6109 17.5857 17.3434 17.5857 17.071C17.5857 16.7987 17.5142 16.5312 17.3783 16.2952C17.2418 16.0595 17.0459 15.8638 16.8101 15.7276C16.5743 15.5915 16.3068 15.5196 16.0345 15.5193H15.5172Z" fill="#CBCBCB"/>
</svg>
