<svg width="46" height="26" viewBox="0 0 46 26" fill="none" xmlns="http://www.w3.org/2000/svg">
<path d="M23 0C15.8 0 10 5.8 10 13C10 20.2 15.8 26 23 26C30.2 26 36 20.2 36 13C36 5.8 30.2 0 23 0ZM23 24C16.9 24 12 19.1 12 13C12 6.9 16.9 2 23 2C29.1 2 34 6.9 34 13C34 19.1 29.1 24 23 24Z" fill="#010101"/>
<path d="M22.9 8H23.1C24.2 8.1 25 8.9 25 10C25 10.6 25.4 11 26 11C26.6 11 27 10.6 27 10C27 8.1 25.7 6.6 24 6.1V5C24 4.4 23.6 4 23 4C22.4 4 22 4.4 22 5V6.1C20.3 6.5 19 8.1 19 10C19 12.2 20.8 14 23 14C24.1 14 25 14.9 25 16C25 17.1 24.1 18 23 18C21.9 18 21 17.1 21 16C21 15.4 20.6 15 20 15C19.4 15 19 15.4 19 16C19 17.9 20.3 19.4 22 19.9V21.1C22 21.7 22.4 22.1 23 22.1C23.6 22.1 24 21.7 24 21.1V19.9C25.7 19.5 27 17.9 27 16C27 13.8 25.2 12 23 12C21.9 12 21 11.1 21 10C21 8.9 21.8 8.1 22.9 8ZM45.7 3.3L42.7 0.3C42.3 -0.0999998 41.7 -0.0999998 41.3 0.3L38.3 3.3C37.9 3.7 37.9 4.3 38.3 4.7C38.7 5.1 39.3 5.1 39.7 4.7L41 3.4V21C41 22.7 39.7 24 38 24H34C33.4 24 33 24.4 33 25C33 25.6 33.4 26 34 26H38C40.8 26 43 23.8 43 21V3.4L44.3 4.7C44.5 4.9 44.8 5 45 5C45.2 5 45.5 4.9 45.7 4.7C46.1 4.3 46.1 3.7 45.7 3.3ZM8 2H12C12.6 2 13 1.6 13 1C13 0.4 12.6 0 12 0H8C5.2 0 3 2.2 3 5V22.6L1.7 21.3C1.3 20.9 0.7 20.9 0.3 21.3C-0.1 21.7 -0.1 22.3 0.3 22.7L3.3 25.7C3.5 25.9 3.7 26 4 26C4.3 26 4.5 25.9 4.7 25.7L7.7 22.7C8.1 22.3 8.1 21.7 7.7 21.3C7.3 20.9 6.7 20.9 6.3 21.3L5 22.6V5C5 3.3 6.3 2 8 2Z" fill="#010101"/>
</svg>
