<svg width="30" height="30" viewBox="0 0 30 30" fill="none" xmlns="http://www.w3.org/2000/svg">
<path d="M3.75 0C2.75544 0 1.80161 0.395088 1.09835 1.09835C0.395088 1.80161 0 2.75544 0 3.75V9.375C0 10.3696 0.395088 11.3234 1.09835 12.0266C1.80161 12.7299 2.75544 13.125 3.75 13.125H9.375C10.3696 13.125 11.3234 12.7299 12.0266 12.0266C12.7299 11.3234 13.125 10.3696 13.125 9.375V3.75C13.125 2.75544 12.7299 1.80161 12.0266 1.09835C11.3234 0.395088 10.3696 0 9.375 0H3.75ZM20.625 0C19.6304 0 18.6766 0.395088 17.9734 1.09835C17.2701 1.80161 16.875 2.75544 16.875 3.75V9.375C16.875 10.3696 17.2701 11.3234 17.9734 12.0266C18.6766 12.7299 19.6304 13.125 20.625 13.125H26.25C27.2446 13.125 28.1984 12.7299 28.9016 12.0266C29.6049 11.3234 30 10.3696 30 9.375V3.75C30 2.75544 29.6049 1.80161 28.9016 1.09835C28.1984 0.395088 27.2446 0 26.25 0H20.625ZM0 20.625C0 19.6304 0.395088 18.6766 1.09835 17.9734C1.80161 17.2701 2.75544 16.875 3.75 16.875H9.375C10.3696 16.875 11.3234 17.2701 12.0266 17.9734C12.7299 18.6766 13.125 19.6304 13.125 20.625V26.25C13.125 27.2446 12.7299 28.1984 12.0266 28.9016C11.3234 29.6049 10.3696 30 9.375 30H3.75C2.75544 30 1.80161 29.6049 1.09835 28.9016C0.395088 28.1984 0 27.2446 0 26.25V20.625ZM20.625 16.875C19.6304 16.875 18.6766 17.2701 17.9734 17.9734C17.2701 18.6766 16.875 19.6304 16.875 20.625V26.25C16.875 27.2446 17.2701 28.1984 17.9734 28.9016C18.6766 29.6049 19.6304 30 20.625 30H26.25C27.2446 30 28.1984 29.6049 28.9016 28.9016C29.6049 28.1984 30 27.2446 30 26.25V20.625C30 19.6304 29.6049 18.6766 28.9016 17.9734C28.1984 17.2701 27.2446 16.875 26.25 16.875H20.625Z" fill="#CBCBCB"/>
</svg>
