<svg width="34" height="34" viewBox="0 0 34 34" fill="none" xmlns="http://www.w3.org/2000/svg">
<path d="M17.5643 6.23285H9.06431C6.23095 6.23285 5.66431 3.39974 5.66431 0.56665H15.8643C16.8061 0.56665 17.5643 1.32478 17.5643 2.2665" fill="#57C8BA"/>
<path d="M5.66431 0.56665C5.66431 0.947216 5.67716 1.32624 5.702 1.69993H14.7311C15.6728 1.69993 16.4311 2.45813 16.4311 3.39985V6.23304H17.5644V2.26657C17.5644 1.32485 16.8062 0.56665 15.8644 0.56665H5.66431Z" fill="#57C8BA"/>
<path d="M5.66431 9.34978C5.66426 10.4451 6.42539 11.333 7.36431 11.333C7.62547 11.3324 7.883 11.2616 8.11692 11.1261C7.99998 10.6474 7.93102 10.1489 7.93102 9.63315V7.48058C7.74899 7.4057 7.55736 7.36753 7.36433 7.36768C6.42576 7.36764 5.66478 8.25492 5.66431 9.34978Z" fill="#57C8BA"/>
<path d="M20.3977 7.48058V9.63315C20.3977 10.1489 20.3287 10.6474 20.2118 11.1261C20.446 11.2618 20.704 11.3326 20.9655 11.333C21.9044 11.333 22.6656 10.4451 22.6655 9.34978C22.665 8.25492 21.9041 7.36765 20.9655 7.36768C20.7721 7.36739 20.5801 7.40556 20.3977 7.48058Z" fill="#57C8BA"/>
<path d="M9.06423 18.1323C5.09756 18.1323 0.564209 22.0988 0.564209 27.1986H6.79756V28.8985H14.1642V18.1323H9.06423Z" fill="#57C8BA"/>
<path d="M12.5828 18.6992C12.2035 18.6992 11.8977 19.0055 11.8977 19.3865V28.8987H14.1644V18.6992H12.5828Z" fill="#57C8BA"/>
<path d="M17.5643 14.7327C17.5643 16.2437 17.5643 17.7547 17.5643 19.2658H10.7643V14.7327" fill="#57C8BA"/>
<path d="M10.7643 14.7327V15.9921C11.7414 16.6274 12.907 16.9992 14.1643 16.9992C15.4216 16.9992 16.5872 16.6274 17.5643 15.9921V14.7327H10.7643Z" fill="#57C8BA"/>
<path d="M20.3976 6.28445V9.63337C20.3976 13.0863 17.6175 15.8661 14.1642 15.8661C10.711 15.8661 7.93091 13.0863 7.93091 9.63337V6.28442" fill="#57C8BA"/>
<path d="M9.63091 16.9993L14.1643 19.8325L18.6976 16.9993L20.3976 18.6991L14.1643 22.6657L7.93091 18.6991L9.63091 16.9993Z" fill="#57C8BA"/>
<path d="M15.9773 18.6992L14.1644 19.8325L12.4079 18.7346C12.1159 18.8132 11.8977 19.0677 11.8977 19.3865V21.2236L14.1644 22.6657L20.3977 18.6992H15.9773Z" fill="#57C8BA"/>
<path d="M19.2643 6.284V9.63293C19.2643 12.8943 16.7827 15.5521 13.5977 15.8372C13.7846 15.8543 13.9728 15.8659 14.1643 15.8659C17.6176 15.8659 20.3977 13.0858 20.3977 9.63286V6.28394L19.2643 6.284Z" fill="#57C8BA"/>
<path d="M13.031 19.3869C13.031 19.0059 13.3364 18.6992 13.7157 18.6992H29.913C30.2923 18.6992 30.5977 19.0059 30.5977 19.3869V31.0442C30.5977 31.4252 30.2923 31.7319 29.913 31.7319H13.031" fill="#57C8BA"/>
<path d="M26.6311 28.6311C26.0032 28.6311 25.4977 29.1365 25.4977 29.7644V31.1652C25.4977 31.793 26.0032 32.2985 26.6311 32.2985C27.2589 32.2985 27.7644 31.793 27.7644 31.1652V29.7644C27.7644 29.1365 27.2589 28.6311 26.6311 28.6311Z" fill="#57C8BA"/>
<path d="M24.3644 28.6311C23.7365 28.6311 23.231 29.1365 23.231 29.7644V31.1652C23.231 31.793 23.7365 32.2985 24.3644 32.2985C24.9922 32.2985 25.4977 31.793 25.4977 31.1652V29.7644C25.4977 29.1365 24.9922 28.6311 24.3644 28.6311ZM22.0977 28.6311C21.4698 28.6311 20.9643 29.1365 20.9643 29.7644V31.1652C20.9643 31.793 21.4698 32.2985 22.0977 32.2985C22.7255 32.2985 23.231 31.793 23.231 31.1652V29.7644C23.231 29.1365 22.7255 28.6311 22.0977 28.6311ZM28.8977 28.6311C28.2698 28.6311 27.7643 29.1365 27.7643 29.7644V31.1652C27.7643 31.793 28.2698 32.2985 28.8977 32.2985C29.5255 32.2985 30.031 31.793 30.031 31.1652V29.7644C30.031 29.1365 29.5255 28.6311 28.8977 28.6311Z" fill="#57C8BA"/>
<path d="M29.4644 18.6992V29.9114C29.4644 30.2924 29.1586 30.5986 28.7793 30.5986H13.031V31.7319H29.9126C30.292 31.7319 30.5977 31.4256 30.5977 31.0447V19.3865C30.5977 19.0055 30.292 18.6992 29.9126 18.6992H29.4644Z" fill="#57C8BA"/>
<path d="M0.564209 31.732C0.564209 32.6737 1.32243 33.4318 2.26421 33.4318C6.79756 33.4382 11.8149 33.4232 16.5218 33.4318C17.7772 33.4318 17.7313 28.6682 16.431 28.6682H13.9014C13.7335 28.6688 13.597 28.5403 13.5977 28.382C13.6084 27.1957 13.5977 25.4993 12.4643 25.4993C10.7643 25.4993 11.627 28.7932 10.1977 28.8989H6.79765V27.1991H0.564295" fill="#57C8BA"/>
<path d="M12.3546 25.514C12.4647 26.0596 12.469 26.7055 12.4643 27.2493C12.4636 27.4076 12.6007 27.5366 12.7686 27.5359H13.5854C13.5439 26.5222 13.3453 25.4996 12.4643 25.4993C12.424 25.499 12.3921 25.5098 12.3546 25.5141V25.514ZM5.66425 27.1989V29.4655H6.7976V27.1989H5.66425ZM16.1532 28.6686C16.4949 30.0775 16.2459 32.2986 15.3884 32.2986C10.6814 32.2901 5.66425 32.3051 1.1309 32.2986C0.959778 32.2986 0.798312 32.2667 0.642822 32.22C0.852712 32.9206 1.4935 33.4319 2.26425 33.4319C6.7976 33.4383 11.8148 33.4233 16.5217 33.4319C17.7771 33.4319 17.7312 28.6686 16.4309 28.6686L16.1532 28.6686Z" fill="#57C8BA"/>
<path d="M18.131 2.2666H19.831C20.4589 2.2666 20.9644 2.77204 20.9644 3.39988V5.0998C20.9644 5.72764 20.4589 6.23308 19.831 6.23308H18.131C17.5031 6.23308 16.9977 5.72764 16.9977 5.0998V3.39988C16.9977 2.77204 17.5031 2.2666 18.131 2.2666Z" fill="#57C8BA"/>
<path d="M18.131 2.2666C17.5031 2.2666 16.9977 2.77205 16.9977 3.39988H18.6977C19.3255 3.39988 19.831 3.90533 19.831 4.53316V6.23308C20.4589 6.23308 20.9643 5.72763 20.9643 5.0998V3.39988C20.9643 2.77205 20.4589 2.2666 19.831 2.2666H18.131Z" fill="#57C8BA"/>
<path d="M19.8311 18.6992H23.7977V24.2778L21.8144 22.9024L19.8311 24.2778V18.6992Z" fill="#57C8BA"/>
<path d="M21.8144 21.7693L19.8311 23.1449V24.2782L21.8144 22.9026L23.7977 24.2782V23.1449L21.8144 21.7693Z" fill="#57C8BA"/>
<path d="M22.6643 18.6992V23.4924L23.7976 24.2782V18.6992H22.6643Z" fill="#57C8BA"/>
<path d="M31.1379 31.6609L33.1028 29.6962C33.5468 29.2522 33.5468 28.5374 33.1028 28.0935C32.6588 27.6495 31.944 27.6495 31.5 28.0935L30.5979 28.9955" fill="#57C8BA"/>
<path d="M27.7644 29.7644C27.1365 29.7644 26.631 30.2698 26.631 30.8977V32.2985C26.631 32.9263 27.1365 33.4318 27.7644 33.4318C28.3922 33.4318 28.8977 32.9263 28.8977 32.2985V30.8977C28.8977 30.2698 28.3922 29.7644 27.7644 29.7644Z" fill="#57C8BA"/>
<path d="M27.7643 29.7642V31.1653C27.7643 31.7931 27.2589 32.2985 26.631 32.2985C26.631 32.9264 27.1365 33.4318 27.7643 33.4318C28.3922 33.4318 28.8977 32.9264 28.8977 32.2985V30.8974C28.8977 30.2696 28.3922 29.7642 27.7643 29.7642Z" fill="#57C8BA"/>
<path d="M25.4978 29.7644C24.8699 29.7644 24.3644 30.2698 24.3644 30.8977V32.2985C24.3644 32.9263 24.8699 33.4318 25.4978 33.4318C26.1256 33.4318 26.6311 32.9263 26.6311 32.2985V30.8977C26.6311 30.2698 26.1256 29.7644 25.4978 29.7644Z" fill="#57C8BA"/>
<path d="M25.4977 29.7642V31.1653C25.4977 31.7931 24.9923 32.2985 24.3644 32.2985C24.3644 32.9264 24.8699 33.4318 25.4977 33.4318C26.1256 33.4318 26.631 32.9264 26.631 32.2985V30.8974C26.631 30.2696 26.1256 29.7642 25.4977 29.7642Z" fill="#57C8BA"/>
<path d="M23.231 29.7644C22.6032 29.7644 22.0977 30.2698 22.0977 30.8977V32.2985C22.0977 32.9263 22.6032 33.4318 23.231 33.4318C23.8589 33.4318 24.3644 32.9263 24.3644 32.2985V30.8977C24.3644 30.2698 23.8589 29.7644 23.231 29.7644Z" fill="#57C8BA"/>
<path d="M23.231 29.7642V31.1653C23.231 31.7931 22.7255 32.2985 22.0977 32.2985C22.0977 32.9264 22.6031 33.4318 23.231 33.4318C23.8588 33.4318 24.3643 32.9264 24.3643 32.2985V30.8974C24.3643 30.2696 23.8588 29.7642 23.231 29.7642Z" fill="#57C8BA"/>
<path d="M30.031 29.7644C29.4031 29.7644 28.8976 30.2698 28.8976 30.8977V32.2985C28.8976 32.9263 29.4031 33.4318 30.031 33.4318C30.6588 33.4318 31.1643 32.9263 31.1643 32.2985V30.8977C31.1643 30.2698 30.6588 29.7644 30.031 29.7644Z" fill="#57C8BA"/>
<path d="M30.031 29.7642V31.1653C30.031 31.7931 29.5256 32.2985 28.8977 32.2985C28.8977 32.9264 29.4032 33.4318 30.031 33.4318C30.6589 33.4318 31.1644 32.9264 31.1644 32.2985V30.8974C31.1644 30.2696 30.6589 29.7642 30.031 29.7642Z" fill="#57C8BA"/>
<path d="M32.1871 29.1888L30.8977 30.4781L31.1379 31.6612L33.1024 29.6967C33.5463 29.2528 33.5463 28.5382 33.1024 28.0942C32.8886 27.8805 32.6121 27.7723 32.3332 27.7644C32.6245 28.2047 32.5755 28.8003 32.1871 29.1888H32.1871Z" fill="#57C8BA"/>
<path d="M5.66879 9.54022e-06C5.35541 -0.00178952 5.10005 0.251085 5.09881 0.564443C5.09881 2.0187 5.22946 3.50156 5.78944 4.70136C6.12269 5.41541 6.6375 6.05277 7.36655 6.41787V6.80191C6.07043 6.80191 5.09881 7.99077 5.09881 9.34848C5.09881 10.7217 6.07356 11.8912 7.36655 11.9006C7.49505 11.9006 7.61342 11.8877 7.73842 11.8639C8.2102 13.2226 9.07467 14.3525 10.1987 15.162V16.6837L9.93533 16.5188C9.83809 16.4567 9.72415 16.4258 9.60884 16.4303C9.46684 16.4368 9.33258 16.4965 9.23254 16.5974L8.09846 17.7315C3.44055 18.5975 0 22.6383 0 27.6236V31.7318C0 32.9901 1.02189 33.9983 2.26774 33.9983C6.80284 34.0048 11.8178 33.9898 16.5227 33.9983C16.8832 33.9983 17.1644 33.8157 17.3561 33.601C17.5478 33.3865 17.6648 33.1399 17.7567 32.8695C17.818 32.6891 17.8662 32.4953 17.9037 32.2962H21.534C21.534 33.2436 22.3009 33.9983 23.2329 33.9983C23.6687 33.9983 24.0642 33.8384 24.3662 33.5638C24.6681 33.8384 25.0637 33.9983 25.4995 33.9983C25.9352 33.9983 26.3309 33.8384 26.6328 33.5638C26.9357 33.8381 27.3317 33.9983 27.7672 33.9983C28.2025 33.9983 28.5976 33.839 28.8994 33.5649C29.2022 33.8389 29.5986 33.9983 30.0339 33.9983C30.9658 33.9983 31.7327 33.2469 31.7327 32.2962V31.869L33.5057 30.0961C34.1647 29.4371 34.1647 28.3501 33.5057 27.6911C32.8677 27.0532 31.8425 27.0222 31.1683 27.6293V19.3875C31.1683 18.7038 30.6179 18.1336 29.9132 18.1336H20.6353L19.1002 16.5975C18.9917 16.4883 18.8435 16.4281 18.6897 16.4304C18.5871 16.4326 18.4873 16.4638 18.4008 16.5189L18.1341 16.6859V15.1631C19.2581 14.3536 20.1306 13.198 20.5933 11.864C20.7186 11.8882 20.8363 11.9006 20.9651 11.9006C22.2613 11.9006 23.2329 10.7156 23.2329 9.3485C23.2329 7.99079 22.2613 6.80193 20.9651 6.80193V6.36936C21.3112 6.05768 21.534 5.59581 21.534 5.09869V3.40098C21.534 2.46905 20.7859 1.69886 19.8318 1.69886C19.2476 1.69956 18.6377 1.70314 18.0638 1.69721C17.8109 0.721668 16.9175 3.09867e-05 15.8663 3.09867e-05L5.66879 9.54022e-06ZM15.8664 1.1344C16.465 1.1344 16.9372 1.57933 16.9909 2.13819C16.6385 2.46241 16.4309 2.90932 16.4309 3.40096V5.09867C16.4309 5.29721 16.4653 5.4865 16.5294 5.66422H9.06432C7.85219 5.66422 7.21433 5.06867 6.81873 4.22105C6.44089 3.41148 6.27927 2.28331 6.23656 1.1344H15.8664ZM19.8319 2.83211C20.1379 2.83211 20.4008 3.0773 20.4008 3.40096V5.09867C20.4008 5.42235 20.1335 5.66863 19.8319 5.66863C19.2536 5.67294 18.6868 5.66435 18.112 5.66435C17.8045 5.65364 17.5642 5.41453 17.5642 5.0988V3.40109C17.5642 3.07743 17.8325 2.83224 18.1342 2.83218L19.8319 2.83211ZM8.49987 6.76207C8.68106 6.78777 8.86823 6.79741 9.0643 6.79741H19.8319V9.63393C19.8319 12.77 17.3178 15.297 14.1687 15.297C11.0372 15.297 8.49987 12.7825 8.49987 9.63393V6.76207ZM7.36655 9.63401C7.36655 10.0151 7.39932 10.3968 7.4595 10.7607C7.42609 10.765 7.39996 10.7671 7.36655 10.7671C6.78492 10.7671 6.23323 10.1809 6.23323 9.34826C6.23325 8.51558 6.78494 7.93497 7.36655 7.93497V9.63401ZM20.9652 7.93519C21.5468 7.93519 22.0985 8.51579 22.0985 9.34848C22.0986 10.1812 21.5468 10.7673 20.9652 10.7673C20.932 10.7673 20.9087 10.7651 20.8755 10.7609C20.9357 10.397 20.9652 10.0153 20.9652 9.63423V7.93519ZM11.332 15.8187C12.1961 16.2157 13.155 16.4304 14.1687 16.4304C15.1811 16.4304 16.1369 16.2144 16.9997 15.8184V17.3943L15.8155 18.1336H13.716C13.4286 18.1336 13.1769 18.2176 12.9446 18.4003L11.332 17.3921V15.8187ZM9.71286 17.7186L12.4654 19.4362V20.9093L8.83079 18.6017L9.71286 17.7186ZM18.6189 17.7186L19.0339 18.1336H17.9538L18.6189 17.7186ZM7.63002 19.1749L12.4654 22.2538V24.9299C11.78 24.9299 11.3532 25.3044 11.1063 25.7289C10.8595 26.1534 10.7652 26.6165 10.6758 27.0426C10.5865 27.4687 10.5055 27.8634 10.4036 28.0884C10.3414 28.2116 10.2785 28.3339 10.1567 28.3308H7.36661V27.1975C7.36536 26.8863 7.11339 26.6344 6.80218 26.6331H1.18541C1.59938 22.8572 4.14083 20.0046 7.48356 19.0361C7.50498 19.0781 7.57606 19.14 7.63003 19.1749H7.63002ZM19.2675 19.2669V24.2781C19.2718 24.7318 19.7794 24.9979 20.154 24.7418L21.8141 23.592L23.4753 24.7418C23.8506 25.0036 24.3654 24.7354 24.3663 24.2781V19.2669H29.9133C29.9872 19.2669 30.0339 19.3204 30.0339 19.3875V29.1963C29.5984 29.1963 29.2023 29.3557 28.8995 29.629C28.5976 29.3557 28.2027 29.1963 27.7673 29.1963C27.3318 29.1963 26.9357 29.3557 26.6328 29.629C26.3309 29.3555 25.9352 29.1963 25.4995 29.1963C25.0638 29.1963 24.6681 29.3554 24.3662 29.629C24.0643 29.3554 23.6687 29.1963 23.2329 29.1963C22.3009 29.1963 21.534 29.9413 21.534 30.8951V31.1629H18.0013C18.0013 31.1223 18.0034 31.0413 18.0034 31.0413C18.0034 31.0413 18.0056 30.0216 17.7024 29.213C17.6011 28.9429 17.4714 28.6923 17.2719 28.4815C17.0722 28.2707 16.7906 28.1008 16.4307 28.1008H14.1674C14.1696 27.554 14.1589 26.942 14.0136 26.3566C13.9355 26.0436 13.8132 25.7317 13.5986 25.4668V19.3875C13.5986 19.3227 13.6421 19.267 13.716 19.267L19.2675 19.2669ZM20.4008 19.2669H23.233V23.1946L22.1406 22.4376C21.9457 22.3016 21.6869 22.3016 21.492 22.4376L20.4008 23.1946V19.2669ZM16.8702 31.0579C16.8788 31.6026 16.8064 32.1531 16.6865 32.5055C16.6361 32.6518 16.5545 32.8105 16.4995 32.8629C11.7974 32.8544 6.79179 32.8715 2.26776 32.8651C1.6301 32.8651 1.13446 32.3505 1.13446 31.7318V27.7664H6.23325V28.8953C6.23206 29.2099 6.48745 29.4653 6.80213 29.4641H10.1988C10.787 29.4389 11.1965 29.0847 11.4328 28.5566C11.624 28.1344 11.7019 27.6834 11.7881 27.2728C11.8742 26.8623 11.9692 26.4935 12.0847 26.2978C12.1299 26.2196 12.2211 26.0566 12.4654 26.0632C12.5652 26.0632 12.6365 26.0846 12.7044 26.1596C12.7723 26.2347 12.8556 26.4013 12.9137 26.6332C13.0296 27.0971 13.0396 27.7884 13.0343 28.3774C13.0323 28.8625 13.4304 29.2358 13.9042 29.234L16.4237 29.2335C16.5102 29.32 16.5738 29.435 16.6401 29.6114C16.7846 29.9968 16.8624 30.5131 16.8702 31.0579ZM32.3039 28.3265C32.4463 28.3265 32.589 28.3792 32.7034 28.4935C32.9235 28.7136 32.9324 29.0637 32.7034 29.2926L31.6454 30.3528C31.5514 30.0752 31.3815 29.8214 31.1684 29.6279V29.2262L31.9044 28.4935C32.0187 28.3792 32.1614 28.3265 32.3039 28.3265ZM23.233 30.3308C23.5368 30.3308 23.8018 30.5715 23.8018 30.8952V32.2963C23.8018 32.62 23.5412 32.8652 23.233 32.8652C22.9247 32.8652 22.6685 32.62 22.6685 32.2963V30.8952C22.6685 30.5715 22.9291 30.3308 23.233 30.3308ZM25.4996 30.3308C25.8012 30.3308 26.064 30.5715 26.064 30.8952V32.2963C26.064 32.62 25.8077 32.8652 25.4996 32.8652C25.1915 32.8652 24.9307 32.62 24.9307 32.2963V30.8952C24.9307 30.5715 25.198 30.3308 25.4996 30.3308ZM27.7673 30.3308C28.0754 30.3308 28.3318 30.5715 28.3318 30.8952V32.2963C28.3318 32.62 28.0762 32.8652 27.7673 32.8652C27.4585 32.8652 27.1985 32.62 27.1985 32.2963V30.8952C27.1985 30.5715 27.4592 30.3308 27.7673 30.3308ZM30.034 30.3308C30.3422 30.3308 30.5984 30.5715 30.5984 30.8952V32.2963C30.5984 32.62 30.3421 32.8652 30.034 32.8652C29.7259 32.8652 29.4651 32.62 29.4651 32.2963V30.8952C29.4651 30.5715 29.7257 30.3308 30.034 30.3308Z" fill="black"/>
</svg>
