<svg width="34" height="28" viewBox="0 0 34 28" fill="none" xmlns="http://www.w3.org/2000/svg">
<path d="M33.9127 21.7342C33.7652 21.3165 33.4587 20.9741 33.0599 20.7815C32.6612 20.589 32.2025 20.5619 31.7839 20.7063L27.1715 22.1335C26.0037 23.1984 25.5602 22.9248 17.0007 22.9248C16.8047 22.9248 16.6166 22.8469 16.478 22.7082C16.3394 22.5695 16.2615 22.3814 16.2615 22.1853C16.2615 21.9891 16.3394 21.801 16.478 21.6624C16.6166 21.5237 16.8047 21.4458 17.0007 21.4458C25.8706 21.4458 25.5676 21.6158 26.218 20.9651C26.4658 20.6912 26.6052 20.3362 26.6098 19.9667C26.6098 19.5745 26.454 19.1983 26.1768 18.9209C25.8996 18.6435 25.5235 18.4877 25.1315 18.4877H17.2224C16.195 18.4877 15.3376 17.0087 12.344 17.0087H7.39161V24.7144L8.34512 25.2542C11.0572 26.8185 14.0909 27.7416 17.2142 27.9531C20.3375 28.1646 23.4678 27.6588 26.3659 26.4744L33.0183 23.79C33.3956 23.6192 33.6959 23.3143 33.8612 22.9344C34.0265 22.5545 34.0448 22.1268 33.9127 21.7342ZM0 26.6223H5.91329V15.5297H0V26.6223ZM2.27661 23.3833C2.31834 23.2821 2.38199 23.1914 2.46299 23.1178C2.54398 23.0443 2.64029 22.9896 2.74497 22.9577C2.84965 22.9259 2.96009 22.9177 3.06831 22.9338C3.17654 22.9498 3.27985 22.9897 3.3708 23.0506C3.46174 23.1114 3.53805 23.1917 3.59422 23.2856C3.65039 23.3796 3.68502 23.4848 3.69561 23.5937C3.70619 23.7027 3.69247 23.8126 3.65544 23.9156C3.6184 24.0186 3.55898 24.1121 3.48145 24.1893C3.36043 24.3099 3.20141 24.3848 3.03143 24.4013C2.86145 24.4179 2.691 24.375 2.54903 24.28C2.40707 24.185 2.30236 24.0438 2.25269 23.8803C2.20303 23.7169 2.21148 23.5412 2.27661 23.3833ZM22.1748 14.7902C23.6367 14.7902 25.0658 14.3565 26.2814 13.5439C27.4969 12.7313 28.4443 11.5763 29.0038 10.2251C29.5632 8.87379 29.7096 7.38689 29.4244 5.95238C29.1392 4.51788 28.4352 3.2002 27.4015 2.16597C26.3677 1.13175 25.0507 0.427439 23.6169 0.142098C22.183 -0.143243 20.6968 0.00320417 19.3462 0.562921C17.9955 1.12264 16.8411 2.07048 16.0289 3.2866C15.2167 4.50272 14.7832 5.93248 14.7832 7.39509C14.7832 9.35639 15.562 11.2374 16.9482 12.6242C18.3344 14.0111 20.2144 14.7902 22.1748 14.7902ZM22.914 8.1346H21.4357C20.8475 8.1346 20.2835 7.90086 19.8677 7.48481C19.4518 7.06876 19.2182 6.50446 19.2182 5.91607C19.2182 5.32768 19.4518 4.76339 19.8677 4.34734C20.2835 3.93128 20.8475 3.69755 21.4357 3.69755V2.95804C21.4357 2.76191 21.5135 2.57381 21.6522 2.43513C21.7908 2.29644 21.9788 2.21853 22.1748 2.21853C22.3709 2.21853 22.5589 2.29644 22.6975 2.43513C22.8361 2.57381 22.914 2.76191 22.914 2.95804V3.69755H24.3923C24.5883 3.69755 24.7763 3.77546 24.915 3.91414C25.0536 4.05283 25.1315 4.24093 25.1315 4.43706C25.1315 4.63319 25.0536 4.82128 24.915 4.95997C24.7763 5.09865 24.5883 5.17657 24.3923 5.17657H21.4357C21.2396 5.17657 21.0516 5.25448 20.913 5.39316C20.7744 5.53185 20.6965 5.71994 20.6965 5.91607C20.6965 6.1122 20.7744 6.3003 20.913 6.43899C21.0516 6.57767 21.2396 6.65558 21.4357 6.65558H22.914C23.5021 6.65558 24.0661 6.88932 24.482 7.30537C24.8978 7.72143 25.1315 8.28572 25.1315 8.87411C25.1315 9.4625 24.8978 10.0268 24.482 10.4428C24.0661 10.8589 23.5021 11.0926 22.914 11.0926V11.8321C22.914 12.0283 22.8361 12.2164 22.6975 12.3551C22.5589 12.4937 22.3709 12.5717 22.1748 12.5717C21.9788 12.5717 21.7908 12.4937 21.6522 12.3551C21.5135 12.2164 21.4357 12.0283 21.4357 11.8321V11.0926H19.9573C19.7613 11.0926 19.5733 11.0147 19.4347 10.876C19.2961 10.7374 19.2182 10.5493 19.2182 10.3531C19.2182 10.157 19.2961 9.9689 19.4347 9.83022C19.5733 9.69153 19.7613 9.61362 19.9573 9.61362H22.914C23.11 9.61362 23.298 9.53571 23.4366 9.39702C23.5753 9.25834 23.6531 9.07024 23.6531 8.87411C23.6531 8.67798 23.5753 8.48988 23.4366 8.3512C23.298 8.21251 23.11 8.1346 22.914 8.1346Z" fill="black"/>
</svg>
