<svg width="30" height="30" viewBox="0 0 30 30" fill="none" xmlns="http://www.w3.org/2000/svg">
<path d="M10.4901 28.1731V23.5728C10.4901 22.4071 11.4879 21.46 12.7238 21.4527H17.262C18.5035 21.4527 19.5099 22.4019 19.5099 23.5728V28.1598C19.5099 29.1709 20.3748 29.9926 21.4468 30H24.5429C25.9889 30.0034 27.377 29.4641 28.4008 28.501C29.4246 27.5379 30 26.2301 30 24.8662V11.7988C30 10.6971 29.4822 9.65205 28.5862 8.94524L18.0679 1.0114C16.2292 -0.376316 13.6032 -0.331487 11.819 1.11807L1.52686 8.94524C0.588538 9.63122 0.0277141 10.6793 0 11.7988V24.8529C0 27.6955 2.44323 30 5.45712 30H8.48256C8.99869 30.0035 9.49498 29.8126 9.86127 29.4696C10.2276 29.1266 10.4336 28.6599 10.4336 28.1731H10.4901Z" fill="#CBCBCB"/>
</svg>
