<svg width="34" height="34" viewBox="0 0 34 34" fill="none" xmlns="http://www.w3.org/2000/svg">
<path d="M16.0728 13.077C16.0728 13.3356 16.0003 13.5884 15.8644 13.8035C15.7286 14.0185 15.5355 14.1862 15.3096 14.2851C15.0836 14.3841 14.835 14.41 14.5952 14.3595C14.3554 14.3091 14.1351 14.1845 13.9622 14.0017C13.7893 13.8188 13.6715 13.5858 13.6238 13.3321C13.5761 13.0784 13.6006 12.8155 13.6942 12.5765C13.7877 12.3376 13.9462 12.1334 14.1495 11.9897C14.3529 11.846 14.5919 11.7693 14.8364 11.7693C15.1643 11.7693 15.4788 11.9071 15.7107 12.1523C15.9425 12.3975 16.0728 12.7302 16.0728 13.077ZM33.819 33.8086C33.7031 33.9311 33.5459 34 33.3819 34C33.218 34 33.0608 33.9311 32.9449 33.8086L29.9492 30.64C28.9051 31.5903 27.6472 32.2401 26.2967 32.5267C24.9462 32.8132 23.5486 32.7269 22.2388 32.2761C20.929 31.8253 19.7511 31.0252 18.8186 29.9528C17.8862 28.8805 17.2307 27.5721 16.9154 26.154H1.81066C1.33054 26.1536 0.870186 25.9517 0.530692 25.5926C0.191198 25.2336 0.000327501 24.7466 0 24.2388V6.49207C0.000327501 5.98425 0.191198 5.49733 0.530692 5.13825C0.870186 4.77917 1.33054 4.57729 1.81066 4.57694H9.89095V1.91512C9.89127 1.40731 10.0821 0.920389 10.4216 0.561309C10.7611 0.202229 11.2215 0.000346396 11.7016 0H17.9712C18.4513 0.000346396 18.9117 0.202229 19.2512 0.561309C19.5907 0.920389 19.7816 1.40731 19.7819 1.91512V4.57694H27.8622C28.3423 4.57729 28.8027 4.77917 29.1421 5.13825C29.4816 5.49733 29.6725 5.98425 29.6728 6.49207V17.5068C30.5294 18.2111 31.2416 19.0923 31.7662 20.0968C32.2908 21.1013 32.6168 22.2082 32.7244 23.3501C32.832 24.492 32.719 25.6451 32.3921 26.7394C32.0653 27.8336 31.5316 28.8462 30.8233 29.7155L33.819 32.884C33.9349 33.0066 34 33.1729 34 33.3463C34 33.5197 33.9349 33.6859 33.819 33.8086ZM11.1273 4.57694H18.5455V1.91512C18.5454 1.75408 18.4848 1.59968 18.3771 1.4858C18.2695 1.37192 18.1235 1.30787 17.9712 1.3077H11.7016C11.5493 1.30787 11.4034 1.37192 11.2957 1.4858C11.188 1.59968 11.1275 1.75408 11.1273 1.91512V4.57694ZM1.23637 6.49207V11.3809C3.26649 12.5121 15.4008 18.621 28.4365 11.3691V6.49207C28.4363 6.33102 28.3758 6.17662 28.2681 6.06274C28.1604 5.94886 28.0144 5.88481 27.8622 5.88464H1.81066C1.6584 5.88481 1.51242 5.94886 1.40476 6.06274C1.29709 6.17662 1.23653 6.33102 1.23637 6.49207ZM16.7225 24.8463C16.7064 24.6298 16.691 24.4134 16.691 24.1924H3.09092C2.92697 24.1924 2.76973 24.1235 2.6538 24.0009C2.53787 23.8783 2.47274 23.712 2.47274 23.5386V21.577C2.47274 21.4036 2.53787 21.2373 2.6538 21.1147C2.76973 20.9921 2.92697 20.9232 3.09092 20.9232H17.3092C17.7357 19.8355 18.3717 18.8536 19.1766 18.0401C19.9816 17.2266 20.9379 16.5994 21.9846 16.1982C23.0313 15.7971 24.1456 15.6308 25.2564 15.7101C26.3672 15.7894 27.4502 16.1125 28.4365 16.6588V12.8462C24.3137 15.0409 19.761 16.1803 15.1455 16.1723C10.3349 16.1512 5.58714 15.0152 1.23637 12.8442V24.2388C1.23653 24.3999 1.29709 24.5543 1.40476 24.6682C1.51242 24.782 1.6584 24.8461 1.81066 24.8463H16.7225ZM16.9154 22.2309H3.70911V22.8847H16.7961C16.8288 22.6637 16.8672 22.446 16.9154 22.2309ZM31.5274 24.1924C31.5274 22.7699 31.1286 21.3793 30.3814 20.1966C29.6342 19.0138 28.5722 18.0919 27.3296 17.5476C26.0871 17.0032 24.7198 16.8608 23.4007 17.1383C22.0817 17.4158 20.87 18.1008 19.919 19.1067C18.968 20.1125 18.3204 21.3941 18.058 22.7893C17.7956 24.1844 17.9303 25.6306 18.445 26.9448C18.9596 28.259 19.8312 29.3823 20.9495 30.1726C22.0677 30.9629 23.3825 31.3847 24.7274 31.3847C26.5302 31.3825 28.2586 30.624 29.5334 29.2757C30.8082 27.9273 31.5253 26.0992 31.5274 24.1924ZM24.7274 18.3078C24.5634 18.3078 24.4062 18.3767 24.2902 18.4993C24.1743 18.6219 24.1092 18.7882 24.1092 18.9616C24.1092 19.135 24.1743 19.3013 24.2902 19.424C24.4062 19.5466 24.5634 19.6155 24.7274 19.6155C25.8746 19.617 26.9744 20.0997 27.7856 20.9577C28.5968 21.8157 29.0532 22.979 29.0547 24.1924C29.0547 24.3658 29.1198 24.5321 29.2357 24.6547C29.3517 24.7774 29.5089 24.8463 29.6728 24.8463C29.8368 24.8463 29.994 24.7774 30.11 24.6547C30.2259 24.5321 30.291 24.3658 30.291 24.1924C30.2894 22.6322 29.7027 21.1365 28.6597 20.0332C27.6166 18.93 26.2024 18.3095 24.7274 18.3078ZM2.47274 10.4616C2.63669 10.4616 2.79393 10.3927 2.90986 10.2701C3.02579 10.1475 3.09092 9.98114 3.09092 9.80773V7.84619H6.18184C6.34579 7.84619 6.50303 7.7773 6.61896 7.65468C6.7349 7.53206 6.80003 7.36575 6.80003 7.19234C6.80003 7.01893 6.7349 6.85262 6.61896 6.73C6.50303 6.60738 6.34579 6.53849 6.18184 6.53849H2.47274C2.30878 6.53849 2.15155 6.60738 2.03561 6.73C1.91968 6.85262 1.85455 7.01893 1.85455 7.19234V9.80773C1.85455 9.98114 1.91968 10.1475 2.03561 10.2701C2.15155 10.3927 2.30878 10.4616 2.47274 10.4616ZM23.491 7.84619H26.5819V9.80773C26.5819 9.98114 26.6471 10.1475 26.763 10.2701C26.8789 10.3927 27.0362 10.4616 27.2001 10.4616C27.3641 10.4616 27.5213 10.3927 27.6372 10.2701C27.7532 10.1475 27.8183 9.98114 27.8183 9.80773V7.19234C27.8183 7.01893 27.7532 6.85262 27.6372 6.73C27.5213 6.60738 27.3641 6.53849 27.2001 6.53849H23.491C23.327 6.53849 23.1698 6.60738 23.0539 6.73C22.9379 6.85262 22.8728 7.01893 22.8728 7.19234C22.8728 7.36575 22.9379 7.53206 23.0539 7.65468C23.1698 7.7773 23.327 7.84619 23.491 7.84619ZM11.7455 7.84619H17.9273C18.0913 7.84619 18.2485 7.7773 18.3645 7.65468C18.4804 7.53206 18.5455 7.36575 18.5455 7.19234C18.5455 7.01893 18.4804 6.85262 18.3645 6.73C18.2485 6.60738 18.0913 6.53849 17.9273 6.53849H11.7455C11.5815 6.53849 11.4243 6.60738 11.3084 6.73C11.1924 6.85262 11.1273 7.01893 11.1273 7.19234C11.1273 7.36575 11.1924 7.53206 11.3084 7.65468C11.4243 7.7773 11.5815 7.84619 11.7455 7.84619Z" fill="black"/>
</svg>
