<svg width="34" height="34" viewBox="0 0 34 34" fill="none" xmlns="http://www.w3.org/2000/svg">
<path d="M9.58182 33.8453C9.71557 33.9457 9.87826 33.9999 10.0455 33.9999C10.2504 33.9999 10.4469 33.9185 10.5919 33.7736C10.7368 33.6286 10.8182 33.4321 10.8182 33.2272V29.3635H25.5C25.7049 29.3635 25.9015 29.2821 26.0464 29.1372C26.1913 28.9923 26.2727 28.7957 26.2727 28.5908C26.2727 28.3859 26.1913 28.1893 26.0464 28.0444C25.9015 27.8995 25.7049 27.8181 25.5 27.8181H10.0455C9.84051 27.8181 9.64397 27.8995 9.49905 28.0444C9.35414 28.1893 9.27273 28.3859 9.27273 28.5908V31.6817L2.06086 26.2726L9.27273 20.8635V23.9544C9.27273 24.1594 9.35414 24.3559 9.49905 24.5008C9.64397 24.6458 9.84051 24.7272 10.0455 24.7272H31.6818C31.8868 24.7272 32.0833 24.6458 32.2282 24.5008C32.3731 24.3559 32.4545 24.1594 32.4545 23.9544V13.1363C32.4545 12.9313 32.3731 12.7348 32.2282 12.5899C32.0833 12.4449 31.8868 12.3635 31.6818 12.3635C31.4769 12.3635 31.2803 12.4449 31.1354 12.5899C30.9905 12.7348 30.9091 12.9313 30.9091 13.1363V23.1817H10.8182V19.3181C10.8182 19.1746 10.7782 19.0339 10.7028 18.9118C10.6273 18.7898 10.5194 18.6911 10.391 18.6269C10.2627 18.5627 10.119 18.5356 9.97606 18.5485C9.83313 18.5614 9.69662 18.6138 9.58182 18.6999L0.309091 25.6544C0.213121 25.7264 0.135228 25.8197 0.0815789 25.927C0.0279302 26.0343 0 26.1527 0 26.2726C0 26.3926 0.0279302 26.5109 0.0815789 26.6182C0.135228 26.7255 0.213121 26.8188 0.309091 26.8908L9.58182 33.8453Z" fill="black"/>
<path d="M19.3183 14.6817C19.5232 14.6817 19.7198 14.6003 19.8647 14.4554C20.0096 14.3105 20.091 14.1139 20.091 13.909C20.091 13.7041 20.0096 13.5075 19.8647 13.3626C19.7198 13.2177 19.5232 13.1363 19.3183 13.1363H17.7728V12.3635C17.7728 12.1586 17.6914 11.9621 17.5465 11.8171C17.4016 11.6722 17.205 11.5908 17.0001 11.5908C16.7951 11.5908 16.5986 11.6722 16.4537 11.8171C16.3088 11.9621 16.2274 12.1586 16.2274 12.3635V13.1363H14.6819C14.477 13.1363 14.2804 13.2177 14.1355 13.3626C13.9906 13.5075 13.9092 13.7041 13.9092 13.909V16.9999C13.9092 17.2049 13.9906 17.4014 14.1355 17.5463C14.2804 17.6912 14.477 17.7726 14.6819 17.7726H18.5455V19.3181H14.6819C14.477 19.3181 14.2804 19.3995 14.1355 19.5444C13.9906 19.6893 13.9092 19.8859 13.9092 20.0908C13.9092 20.2958 13.9906 20.4923 14.1355 20.6372C14.2804 20.7821 14.477 20.8635 14.6819 20.8635H16.2274V21.6363C16.2274 21.8412 16.3088 22.0378 16.4537 22.1827C16.5986 22.3276 16.7951 22.409 17.0001 22.409C17.205 22.409 17.4016 22.3276 17.5465 22.1827C17.6914 22.0378 17.7728 21.8412 17.7728 21.6363V20.8635H19.3183C19.5232 20.8635 19.7198 20.7821 19.8647 20.6372C20.0096 20.4923 20.091 20.2958 20.091 20.0908V16.9999C20.091 16.795 20.0096 16.5984 19.8647 16.4535C19.7198 16.3086 19.5232 16.2272 19.3183 16.2272H15.4546V14.6817H19.3183Z" fill="black"/>
<path d="M23.6091 15.3773C23.7378 15.4408 23.8817 15.4672 24.0246 15.4536C24.1675 15.4399 24.3038 15.3868 24.4181 15.3L33.6909 8.34546C33.7868 8.27348 33.8647 8.18014 33.9184 8.07285C33.972 7.96555 34 7.84724 34 7.72727C34 7.60731 33.972 7.489 33.9184 7.3817C33.8647 7.2744 33.7868 7.18107 33.6909 7.10909L24.4181 0.154546C24.3033 0.068443 24.1668 0.0160102 24.0239 0.00312272C23.881 -0.0097648 23.7373 0.017402 23.6089 0.0815793C23.4806 0.145757 23.3726 0.244409 23.2972 0.366481C23.2217 0.488553 23.1818 0.629223 23.1818 0.772728V4.63636H8.49996C8.29502 4.63636 8.09847 4.71778 7.95356 4.86269C7.80864 5.00761 7.72723 5.20415 7.72723 5.40909C7.72723 5.61403 7.80864 5.81058 7.95356 5.95549C8.09847 6.10041 8.29502 6.18182 8.49996 6.18182H23.9545C24.1594 6.18182 24.356 6.10041 24.5009 5.95549C24.6458 5.81058 24.7272 5.61403 24.7272 5.40909V2.31818L31.9391 7.72727L24.7272 13.1364V10.0455C24.7272 9.84052 24.6458 9.64397 24.5009 9.49905C24.356 9.35414 24.1594 9.27273 23.9545 9.27273H2.31814C2.1132 9.27273 1.91665 9.35414 1.77174 9.49905C1.62682 9.64397 1.54541 9.84052 1.54541 10.0455V20.8636C1.54541 21.0686 1.62682 21.2651 1.77174 21.41C1.91665 21.555 2.1132 21.6364 2.31814 21.6364C2.52308 21.6364 2.71962 21.555 2.86454 21.41C3.00945 21.2651 3.09086 21.0686 3.09086 20.8636V10.8182H23.1818V14.6818C23.181 14.8261 23.2206 14.9677 23.2961 15.0906C23.3716 15.2135 23.4801 15.3128 23.6091 15.3773Z" fill="black"/>
</svg>
