<svg width="32" height="26" viewBox="0 0 32 26" fill="none" xmlns="http://www.w3.org/2000/svg">
<path d="M11.6844 0.915369C10.6916 0.108042 9.57773 -0.17809 8.54825 0.10938C6.47492 0.688873 5.43514 3.47523 6.23035 6.32062C6.92704 8.81321 8.80387 10.5368 10.6524 10.5368C10.9161 10.5371 11.1787 10.5013 11.4327 10.4303C13.5061 9.85092 14.5458 7.06449 13.7506 4.2191C13.3719 2.86428 12.6382 1.6909 11.6844 0.915369ZM11.2218 9.67576C9.56421 10.1389 7.66422 8.53913 6.98534 6.10998C6.30645 3.68084 7.1022 1.32753 8.75902 0.864501C8.9482 0.811708 9.14372 0.785089 9.34012 0.785388C9.95268 0.785388 10.5922 1.03765 11.1896 1.52357C12.0188 2.19771 12.6601 3.23033 12.9955 4.43021C13.6746 6.85948 12.8791 9.21266 11.2218 9.67576ZM5.70668 10.872C5.08971 10.0583 4.27221 9.4678 3.40464 9.20918C2.4935 8.9375 1.63377 9.05932 0.983932 9.5522C0.334095 10.0451 -0.0152199 10.84 0.000508938 11.7905C0.0155016 12.6957 0.363545 13.6422 0.980519 14.4559C1.85458 15.6086 3.09756 16.2541 4.21445 16.2541C4.74992 16.2632 5.27337 16.095 5.70333 15.7757C7.00629 14.7876 7.00783 12.5878 5.70675 10.872H5.70668ZM5.22966 15.1512C4.27107 15.8779 2.6453 15.3536 1.60506 13.9821C1.08801 13.3002 0.796458 12.5172 0.784209 11.7774C0.772764 11.083 1.01178 10.5145 1.45754 10.1765C1.75358 9.95839 2.11345 9.84437 2.48105 9.85219C2.71828 9.85415 2.95397 9.89052 3.18076 9.96015C3.88983 10.1715 4.5651 10.6635 5.08221 11.3456C6.12212 12.7169 6.18825 14.424 5.22966 15.151V15.1512ZM10.6826 15.0517C10.7536 15.0517 10.8233 15.0323 10.8841 14.9957L10.9127 14.9785C11.0008 14.9246 11.0641 14.8381 11.0887 14.7378C11.1134 14.6374 11.0974 14.5314 11.0443 14.4428C10.9912 14.3542 10.9053 14.2901 10.8052 14.2645C10.7052 14.2389 10.599 14.2538 10.5099 14.3061L10.4803 14.3238C10.4068 14.368 10.3499 14.435 10.3181 14.5146C10.2864 14.5943 10.2816 14.6821 10.3046 14.7647C10.3276 14.8473 10.377 14.9201 10.4452 14.9719C10.5135 15.0238 10.5969 15.0518 10.6826 15.0517Z" fill="black"/>
<path d="M15.9513 12.7997C15.6888 12.7813 14.1221 12.7135 12.1072 13.5159C12.0588 13.5345 12.0145 13.5625 11.977 13.5983C11.9395 13.6342 11.9094 13.6771 11.8886 13.7246C11.8678 13.7722 11.8566 13.8234 11.8558 13.8752C11.8549 13.9271 11.8643 13.9786 11.8835 14.0268C11.9027 14.0751 11.9313 14.119 11.9676 14.156C12.0039 14.1931 12.0472 14.2226 12.095 14.2428C12.1428 14.263 12.1941 14.2736 12.246 14.2738C12.2979 14.274 12.3493 14.2639 12.3972 14.2441C14.3751 13.4566 15.9003 13.5819 15.9148 13.5832C15.9388 13.5854 15.963 13.5854 15.9871 13.5832C16.0024 13.5818 17.5492 13.455 19.547 14.2607C21.39 15.0041 24.0106 16.7192 26.0278 20.6695C26.3753 21.3316 26.4781 22.0952 26.3181 22.8257C26.1628 23.4855 25.7929 24.0751 25.2665 24.5022C24.6951 24.9705 23.9773 25.2232 23.2385 25.2161C22.4294 25.2187 21.6446 24.9396 21.0187 24.4268C19.9349 23.5304 18.176 22.4617 15.951 22.4617C13.7261 22.4617 11.9671 23.5304 10.8835 24.4268C10.2576 24.9395 9.4728 25.2186 8.66367 25.2161C7.92487 25.2233 7.20704 24.9706 6.63565 24.5022C6.10937 24.075 5.73967 23.4854 5.58449 22.8256C5.42448 22.0951 5.52727 21.3316 5.87477 20.6694C6.85271 18.7545 8.05714 17.1893 9.45467 16.0177C9.53431 15.9509 9.58416 15.8552 9.59325 15.7516C9.60233 15.6481 9.56992 15.5452 9.50313 15.4655C9.43634 15.3859 9.34065 15.3361 9.2371 15.327C9.13356 15.3179 9.03065 15.3503 8.95101 15.4171C7.47256 16.6569 6.20267 18.3041 5.17668 20.3131C4.74513 21.14 4.6192 22.0927 4.82107 23.0033C5.01372 23.829 5.47496 24.5673 6.13246 25.1026C6.84499 25.6893 7.74105 26.0069 8.66401 25.9999C9.65549 26.0022 10.6169 25.6596 11.3834 25.0307C12.3679 24.2163 13.9596 23.2455 15.9514 23.2455C17.9432 23.2455 19.5348 24.216 20.5194 25.0307C21.2859 25.6596 22.2473 26.0023 23.2388 25.9999C24.1617 26.0069 25.0577 25.6893 25.7701 25.1026C26.4278 24.5673 26.8892 23.8289 27.082 23.0031C27.2838 22.0924 27.1579 21.1398 26.7263 20.3129C24.5875 16.1247 21.7776 14.3052 19.797 13.5163C17.781 12.7134 16.2139 12.7813 15.9513 12.7997ZM20.4698 10.4304C20.7239 10.5013 20.9864 10.5371 21.2501 10.5368C23.0986 10.5368 24.9757 8.8131 25.6722 6.32064C26.051 4.96568 26.0318 3.58194 25.6183 2.42429C25.1878 1.21912 24.3839 0.39687 23.3544 0.109065C22.3249 -0.17874 21.211 0.107526 20.2182 0.91492C19.2644 1.69066 18.5306 2.86396 18.152 4.21866C17.7734 5.57335 17.7925 6.95736 18.2059 8.11507C18.6363 9.32044 19.4403 10.1426 20.4698 10.4304ZM18.907 4.42989C19.2423 3.22968 19.8836 2.19739 20.7127 1.52326C21.3102 1.03734 21.9496 0.785073 22.5623 0.785073C22.7587 0.784769 22.9542 0.811387 23.1434 0.864185C23.921 1.08144 24.5377 1.72914 24.8802 2.68793C25.2396 3.69425 25.2528 4.90939 24.9173 6.10967C24.2384 8.53888 22.3382 10.1389 20.6805 9.67544C19.903 9.45812 19.2862 8.81049 18.9439 7.85169C18.5847 6.84538 18.5715 5.63017 18.907 4.42989ZM31.9021 11.79C31.9179 10.8396 31.5685 10.0445 30.9186 9.55169C29.6156 8.56351 27.4971 9.15565 26.1958 10.8714C24.8945 12.5872 24.8963 14.7869 26.1992 15.7752C26.6292 16.0944 27.1526 16.2626 27.6881 16.2535C28.8049 16.2535 30.048 15.608 30.9221 14.4554C31.539 13.6417 31.8871 12.6952 31.9021 11.79ZM30.2975 13.9817C29.2576 15.3532 27.6314 15.8774 26.6729 15.1506C25.7144 14.4238 25.7805 12.7165 26.8202 11.345C27.8599 9.97355 29.4862 9.44921 30.4448 10.1762C30.8905 10.5142 31.1296 11.0827 31.1182 11.7771C31.1062 12.5169 30.8146 13.2998 30.2975 13.9817Z" fill="black"/>
</svg>
