<svg width="30" height="30" viewBox="0 0 30 30" fill="none" xmlns="http://www.w3.org/2000/svg">
<path d="M15 0C6.7125 0 0 6.7125 0 15C0 23.2875 6.7125 30 15 30C23.2875 30 30 23.2875 30 15C30 6.7125 23.2875 0 15 0ZM15 4.5C17.4825 4.5 19.5 6.5175 19.5 9C19.5 11.49 17.4825 13.5 15 13.5C12.5175 13.5 10.5 11.49 10.5 9C10.5 6.5175 12.5175 4.5 15 4.5ZM15 25.8C11.2425 25.8 7.9425 23.88 6 20.97C6.0375 17.9925 12.0075 16.35 15 16.35C17.9925 16.35 23.955 17.9925 24 20.97C22.0575 23.88 18.7575 25.8 15 25.8Z" fill="#CBCBCB"/>
</svg>
