<svg width="12" height="11" viewBox="0 0 12 11" fill="none" xmlns="http://www.w3.org/2000/svg">
<path d="M5.73913 0C2.52091 0 0 1.47051 0 3.34783V5.5V7.65217C0 9.52949 2.52091 11 5.73913 11C8.95735 11 11.4783 9.52949 11.4783 7.65217V5.5V3.34783C11.4783 1.47051 8.95735 0 5.73913 0ZM11 7.65217C11 9.23454 8.63999 10.5217 5.73913 10.5217C2.83827 10.5217 0.478261 9.23454 0.478261 7.65217V6.85975C1.35594 8.04082 3.35566 8.84783 5.73913 8.84783C8.1226 8.84783 10.1223 8.04082 11 6.85975V7.65217ZM11 5.5C11 7.08237 8.63999 8.36957 5.73913 8.36957C2.83827 8.36957 0.478261 7.08237 0.478261 5.5V4.70757C1.35594 5.88865 3.35566 6.69565 5.73913 6.69565C8.1226 6.69565 10.1223 5.88865 11 4.70757V5.5ZM5.73913 6.21739C2.83827 6.21739 0.478261 4.9302 0.478261 3.34783C0.478261 1.76546 2.83827 0.478261 5.73913 0.478261C8.63999 0.478261 11 1.76546 11 3.34783C11 4.9302 8.63999 6.21739 5.73913 6.21739Z" fill="#49A298"/>
<path d="M5.73915 0.956543C3.05734 0.956543 0.956543 2.00694 0.956543 3.34785C0.956543 4.68875 3.05734 5.73915 5.73915 5.73915C8.42096 5.73915 10.5218 4.68875 10.5218 3.34785C10.5218 2.00694 8.42096 0.956543 5.73915 0.956543ZM5.73915 5.26089C3.406 5.26089 1.4348 4.38494 1.4348 3.34785C1.4348 2.31076 3.406 1.4348 5.73915 1.4348C8.07231 1.4348 10.0435 2.31076 10.0435 3.34785C10.0435 4.38494 8.07231 5.26089 5.73915 5.26089Z" fill="#49A298"/>
<path d="M5.73911 2.50585C6.18421 2.50585 6.4565 2.70108 6.4565 2.80733H6.93476C6.93476 2.41648 6.53731 2.11072 5.97824 2.04236V1.86108H5.49998V2.04236C4.9409 2.11072 4.54346 2.41648 4.54346 2.80733C4.54346 3.25196 5.05745 3.58707 5.73911 3.58707C6.18421 3.58707 6.4565 3.7823 6.4565 3.88855C6.4565 3.99481 6.18421 4.19004 5.73911 4.19004C5.29413 4.19004 5.02172 3.99481 5.02172 3.88855H4.54346C4.54346 4.2794 4.9409 4.58516 5.49998 4.65353V4.8348H5.97824V4.65353C6.53731 4.58516 6.93476 4.2794 6.93476 3.88855C6.93476 3.44392 6.42077 3.10881 5.73911 3.10881C5.29413 3.10881 5.02172 2.91358 5.02172 2.80733C5.02172 2.70108 5.29413 2.50585 5.73911 2.50585Z" fill="#49A298"/>
</svg>
