<svg width="32" height="37" viewBox="0 0 32 37" fill="none" xmlns="http://www.w3.org/2000/svg">
<path d="M11.9275 10.5225C12.1182 10.5225 12.3075 10.4776 12.4835 10.389L21.1431 5.98623C21.5697 5.76953 21.8324 5.32555 21.8164 4.84589C21.8004 4.36624 21.5097 3.94076 21.0697 3.7518L12.5542 0.0995468C12.1782 -0.0616598 11.7449 -0.0259828 11.4009 0.198649C11.0556 0.420639 10.8463 0.801192 10.8383 1.21214L10.7916 3.83637C4.16392 6.05626 -0.23186 12.2535 0.00946184 19.2316C0.201452 24.7734 3.39863 29.8673 8.35571 32.5232C8.54104 32.6223 8.73969 32.6686 8.93569 32.6686C9.37566 32.6686 9.80097 32.432 10.0223 32.0171C10.3423 31.4159 10.117 30.6693 9.51699 30.3482C5.33186 28.1046 2.632 23.8128 2.46934 19.1457C2.27602 13.5643 5.61585 8.57479 10.7449 6.48174L10.6956 9.26586C10.6889 9.69795 10.9076 10.1036 11.2742 10.3335C11.4729 10.4604 11.6995 10.5225 11.9275 10.5225ZM17.6806 4.98199L13.1955 7.26267L13.2701 3.0898L17.6806 4.98199ZM31.9905 18.1626C31.8119 13.0172 29.0787 8.27616 24.6816 5.47883C24.1029 5.11281 23.3456 5.28326 22.9817 5.85938C22.619 6.43417 22.7883 7.1966 23.3616 7.5613C27.0748 9.92258 29.3827 13.9171 29.532 18.2472C29.712 23.4243 26.8308 28.1389 22.2364 30.4645L22.1644 27.6817C22.151 27.2496 21.915 26.8559 21.5404 26.6418C21.1657 26.4291 20.7058 26.4264 20.3311 26.6392L11.8689 31.3987C11.4516 31.6339 11.2089 32.0885 11.2436 32.5668C11.2796 33.0438 11.5876 33.4574 12.0355 33.6279L20.7044 36.9207C20.8471 36.9736 20.9938 37 21.1404 37C21.3911 37 21.6417 36.922 21.8524 36.7727C22.187 36.5349 22.3804 36.1451 22.371 35.7355L22.3044 33.1482C28.3534 30.6072 32.2172 24.6954 31.9905 18.1626ZM15.3714 32.2563L19.7551 29.7906L19.8631 33.9622L15.3714 32.2563Z" fill="black"/>
</svg>
